<?xml version="1.0" standalone="no"?>
<!DOCTYPE svg PUBLIC "-//W3C//DTD SVG 20010904//EN"
 "http://www.w3.org/TR/2001/REC-SVG-20010904/DTD/svg10.dtd">
<svg version="1.0" xmlns="http://www.w3.org/2000/svg"
 width="550.000000pt" height="215.000000pt" viewBox="0 0 550.000000 215.000000"
 preserveAspectRatio="xMidYMid meet">
<metadata>
Created by potrace 1.16, written by Peter Selinger 2001-2019
</metadata>
<g transform="translate(0.000000,215.000000) scale(0.100000,-0.100000)"
fill="#000000" stroke="none">
<path d="M456 1686 c-78 -47 -75 -27 -76 -602 l0 -511 23 -33 c12 -18 35 -43
50 -54 28 -21 33 -21 777 -21 740 0 749 0 776 21 15 11 37 33 48 48 20 27 21
40 24 545 l3 517 -23 34 c-13 19 -39 45 -57 57 l-34 23 -736 0 -736 0 -39 -24z
m1462 -598 l2 -458 -690 0 -690 0 0 460 0 460 688 -2 687 -3 3 -457z"/>
<path d="M953 1426 l-28 -24 0 -315 c0 -293 1 -316 19 -335 27 -30 68 -36 108
-16 79 40 497 286 507 298 6 7 14 27 17 44 5 26 1 36 -22 59 -41 41 -518 313
-548 313 -14 0 -38 -11 -53 -24z m284 -288 c47 -27 81 -53 77 -57 -18 -15
-205 -121 -215 -121 -5 0 -9 55 -9 130 l0 131 31 -17 c17 -8 69 -38 116 -66z"/>
<path d="M4369 1528 l-46 -10 1 -334 c1 -380 -10 -337 92 -349 157 -17 268 75
281 233 7 86 -10 147 -52 189 -52 52 -113 46 -183 -21 l-33 -31 7 168 c6 140
5 167 -7 166 -8 -1 -35 -6 -60 -11z m205 -379 c27 -26 34 -124 12 -167 -21
-41 -47 -54 -99 -50 l-42 3 -8 60 c-4 33 -6 82 -5 110 3 48 4 50 43 61 46 14
72 10 99 -17z"/>
<path d="M2379 1458 l-56 -10 -7 -276 c-4 -153 -9 -292 -13 -309 l-5 -33 56 0
56 0 1 213 c0 116 4 220 7 230 5 12 23 -29 56 -129 44 -135 50 -145 70 -140
11 3 37 6 56 6 l35 0 49 140 c27 76 53 137 58 134 4 -3 8 -106 8 -230 l0 -224
61 0 61 0 -6 58 c-3 31 -9 172 -12 313 l-7 257 -56 5 c-31 3 -59 3 -64 -2 -4
-4 -35 -79 -68 -167 -34 -87 -65 -163 -69 -167 -4 -5 -34 70 -66 167 -43 129
-63 176 -74 175 -8 -1 -40 -6 -71 -11z"/>
<path d="M3358 1410 l-3 -50 84 7 84 6 -5 -272 -5 -272 59 3 60 3 -1 269 -2
269 81 -7 80 -6 0 27 c0 16 3 38 6 51 l6 22 -220 0 -220 0 -4 -50z"/>
<path d="M2990 1286 c-30 -5 -56 -10 -58 -11 -2 -2 16 -47 38 -101 23 -55 59
-145 80 -202 l38 -103 -44 -100 c-24 -55 -44 -103 -44 -108 0 -11 103 -32 111
-23 4 4 19 45 34 92 15 47 68 190 116 319 49 129 88 235 87 236 -2 1 -27 5
-56 8 -37 4 -54 3 -57 -6 -2 -7 -22 -72 -45 -146 -23 -74 -45 -130 -50 -125
-5 5 -27 70 -50 144 -22 74 -42 135 -43 135 -1 1 -27 -3 -57 -9z"/>
<path d="M3908 1288 l-58 -10 4 -189 3 -190 27 -28 c15 -16 40 -31 54 -34 31
-7 118 31 148 64 18 20 18 20 39 -24 l20 -45 44 19 c40 18 43 21 35 47 -5 15
-9 109 -9 210 0 135 -3 182 -12 182 -7 0 -34 -5 -60 -10 l-48 -11 3 -149 3
-150 -28 -11 c-43 -18 -84 -15 -100 7 -13 16 -14 47 -9 177 3 86 4 156 3 156
-1 -1 -28 -6 -59 -11z"/>
<path d="M4895 1286 c-46 -20 -109 -98 -128 -157 -33 -102 -18 -198 42 -258
48 -48 93 -58 164 -37 46 13 128 74 127 95 -1 3 -9 16 -20 29 l-19 22 -37 -25
c-55 -37 -114 -35 -148 6 -14 17 -26 39 -26 49 0 19 11 22 163 36 81 8 87 15
87 111 0 76 -13 104 -60 128 -36 18 -105 19 -145 1z"/>
</g>
</svg>
